<!-- icon666.com - MILLIONS vector ICONS FREE --><svg viewBox="0 0 55 58" xmlns="http://www.w3.org/2000/svg"><g id="Page-1" fill="none" fill-rule="evenodd"><g id="013---Beaver" fill="rgb(0,0,0)" fill-rule="nonzero" transform="translate(-1 -1)"><path id="Shape" d="m39.52 43.28.26.86c-2.75 4.18-7 6.86-11.78 6.86s-9.03-2.68-11.78-6.86l.26-.86c1.11-3.69 4.46-12.28 11.52-12.28s10.41 8.59 11.52 12.28z"></path><path id="Shape" d="m26 52.86v2.39c-.0012709 1.9664872-1.5217756 3.5977923-3.483319 3.7371512-1.9615434.139359-3.6974057-1.2605956-3.976681-3.2071512l-1.01-7.04c2.3336861 2.20992 5.2907927 3.6483237 8.47 4.12z"></path><path id="Shape" d="m38.47 48.74-1.01 7.04c-.2792753 1.9465556-2.0151376 3.3465102-3.976681 3.2071512-1.9615434-.1393589-3.4820481-1.770664-3.483319-3.7371512v-2.39c3.1792073-.4716763 6.1363139-1.91008 8.47-4.12z"></path><path id="Shape" d="m13.51 22.42c-.11.27-.22.54-.35.81-1.3623041 2.9073688-2.0949703 6.0697605-2.15 9.28l-5.56 2.25c-1.56529735.6359829-3.35636778-.0401399-4.11091608-1.5518564-.75454829-1.5117166-.21825484-3.3495046 1.23091608-4.2181436z"></path><path id="Shape" d="m54.83 32.98c-.3200585.7960927-.9444301 1.4316446-1.7347176 1.7657804s-1.6812082.3392538-2.4752824.0142196l-5.63-2.28c-.0599223-3.2000065-.7924555-6.351603-2.15-9.25-.1377273-.2802574-.2612178-.5672894-.37-.86l11.02 6.62c1.3663102.8201327 1.9343093 2.5114136 1.34 3.99z"></path><path id="Shape" d="m26.876 21.971-.329.224.3 1.8h2.3l.3-1.806-.329-.223c-.6771696-.4598142-1.566888-.45783-2.242.005z"></path><circle id="Oval" cx="24" cy="9" r="1"></circle><circle id="Oval" cx="32" cy="9" r="1"></circle><ellipse id="Oval" cx="28" cy="15" rx="2" ry="1"></ellipse><path id="Shape" d="m41.03 24.09c-1.46-3.06-1.61-6.51-1.85-9.84-.23-3.21-.52-6.71-2.54-9.38-2.135562-2.54481987-5.3193748-3.9709027-8.64-3.87-3.3206252-.1009027-6.504438 1.32518013-8.64 3.87-2.02 2.67-2.31 6.17-2.54 9.38-.24 3.33-.39 6.78-1.85 9.84-2.5913342 5.5799418-2.6278328 12.0110051-.1 17.62 1.51-4.48 5.35-12.71 13.13-12.71s11.62 8.23 13.13 12.71c2.5278328-5.6089949 2.4913342-12.0400582-.1-17.62zm-12.03-17.09c0-.55228475.4477153-1 1-1h4c.405774.00047206.7710356.24610169.9245299.62172422.1534943.37562252.0647875.80676171-.2245299 1.09127578.1957102.40091034.2982658.84087382.3 1.287 0 1.6568542-1.3431458 3-3 3s-3-1.3431458-3-3c.0017342-.44612618.1042898-.88608966.3-1.287-.1922653-.18734526-.3004872-.4445527-.3-.713zm-8 0c0-.55228475.4477153-1 1-1h4c.405774.00047206.7710356.24610169.9245299.62172422.1534943.37562252.0647875.80676171-.2245299 1.09127578.1957102.40091034.2982658.84087382.3 1.287 0 1.6568542-1.3431458 2.9999999-3 2.9999999s-3-1.3431457-3-2.9999999c.0017342-.44612618.1042898-.88608966.3-1.287-.1922653-.18734526-.3004872-.4445527-.3-.713zm13.16 15.231c-.8068005.5943207-1.8127197.8524325-2.806.72l-.229 1.377c-.158079.9660845-.9940711 1.674538-1.973 1.672h-2.3c-.9786073.0026175-1.8144823-.7053131-1.973-1.671l-.229-1.38c-.1657391.0226808-.3327277.035038-.5.037-.8278798.0020335-1.6343869-.2627112-2.3-.755-1.1007663-.7164559-1.7893234-1.9190115-1.85-3.231 0-1.877 1.536-3.493 4.045-4.348.227-1.51 1.871-2.652 3.955-2.652s3.728 1.142 3.955 2.652c2.509.855 4.045 2.471 4.045 4.348-.0584227 1.3101236-.743044 2.5123036-1.84 3.231z"></path><path id="Shape" d="m31.411 16.569c-.8678737.9601589-2.1178481 1.4845545-3.411 1.431-1.2931519.0535545-2.5431263-.4708411-3.411-1.431-1.575.562-2.589 1.493-2.589 2.431.0761241.6719597.4570599 1.2715741 1.033 1.626.6771151.4792399 1.5828849.4792399 2.26 0l.46-.313c1.3548751-.9260692 3.1391249-.9260692 4.494 0l.46.312c.6770195.4795403 1.5829805.4795403 2.26 0 .5756825-.3542157.9565827-.9534052 1.033-1.625 0-.938-1.014-1.869-2.589-2.431z"></path></g></g></svg>